<svg id="Layer_1" data-name="Layer 1" xmlns="http://www.w3.org/2000/svg" viewBox="0 0 270 270"><defs><style>.cls-1{fill:#fff;}.cls-1,.cls-2,.cls-4{stroke:#0b1320;stroke-linecap:round;stroke-linejoin:round;}.cls-2,.cls-4{fill:none;}.cls-2{stroke-dasharray:2.39 3.98;}.cls-3{fill:#0b1320;}</style></defs><circle class="cls-1" cx="135" cy="33.52" r="28.52"/><line class="cls-2" x1="135" y1="66.74" x2="135" y2="95.34"/><line class="cls-2" x1="202.49" y1="78.94" x2="182.26" y2="99.17"/><line class="cls-2" x1="67.51" y1="78.94" x2="87.74" y2="99.17"/><circle class="cls-1" cx="228" cy="53.44" r="28.52"/><path class="cls-1" d="M233.25,55.36l8.19,8.2a2.32,2.32,0,1,1-3.28,3.28L240.35,69a2.32,2.32,0,0,1-3.28,3.28L236,71.21a2.32,2.32,0,0,1-3.28,3.28l-1.09-1.09a2.32,2.32,0,1,1-3.28,3.28L215.18,63.54c-3.86-3.86-1.86-8.82-4.18-11.14"/><line class="cls-1" x1="229.97" y1="58.64" x2="238.16" y2="66.84"/><line class="cls-1" x1="227.23" y1="62.47" x2="235.98" y2="71.21"/><line class="cls-1" x1="224.5" y1="66.29" x2="231.61" y2="73.4"/><path class="cls-1" d="M239.8,61.92l2.57-2.57c2.19-2.19,1.36-7.36,3.55-9.54"/><path class="cls-1" d="M235.57,39.92l-2.18,2.18c-2.19,2.19-4.37,0-6.56,2.19l-8.34,8.34a.77.77,0,0,0,0,1.09l.55.55a3.08,3.08,0,0,0,4.37,0l4.37-4.37a7.73,7.73,0,0,0,10.94,0"/><line class="cls-1" x1="224.5" y1="46.62" x2="220.58" y2="42.7"/><polygon class="cls-1" points="252.65 46.62 247.5 52.1 234.36 38.96 239.45 33.55 252.65 46.62"/><path class="cls-1" d="M213.76,61.73l-2.37,2.38a2.22,2.22,0,0,0,.54,2.73,2.3,2.3,0,0,0,2.73.55l-.54.54a2.32,2.32,0,1,0,3.28,3.28l.54-.55a2.32,2.32,0,1,0,3.28,3.28h0a2.28,2.28,0,0,0,.55,2.74,2.32,2.32,0,0,0,2.73.54L226.69,75"/><circle class="cls-3" cx="241.31" cy="38.96" r="0.77"/><polygon class="cls-1" points="203.35 49.22 208.5 54.69 221.64 41.56 216.55 36.15 203.35 49.22"/><path class="cls-3" d="M213.91,41.56a.78.78,0,1,1,.77.77A.78.78,0,0,1,213.91,41.56Z"/><circle class="cls-1" cx="42" cy="53.44" r="28.52"/><polyline class="cls-1" points="38.26 54.74 38.09 49.87 45.91 49.87 45.75 54.74"/><path class="cls-1" d="M33.87,42.61a3.32,3.32,0,0,1,3.34,3.29S37,40,37,39.46a2,2,0,0,0-2-1.93,2.13,2.13,0,0,0-1.79,1.13l-2.42,5.9h0A3.35,3.35,0,0,1,33.87,42.61Z"/><path class="cls-1" d="M31.11,53.85a7.36,7.36,0,0,1,7.42,7.31S38,48.08,38,46.85a4.33,4.33,0,0,0-4.36-4.29,4.73,4.73,0,0,0-4,2.51l-5.37,13.1h0A7.43,7.43,0,0,1,31.11,53.85Z"/><path class="cls-1" d="M31.11,53.85a7.31,7.31,0,1,0,7.42,7.31A7.36,7.36,0,0,0,31.11,53.85Zm0,11.85a4.55,4.55,0,1,1,4.61-4.54A4.58,4.58,0,0,1,31.11,65.7Z"/><path class="cls-1" d="M50.13,42.61a3.32,3.32,0,0,0-3.34,3.29S47,40,47,39.46a2,2,0,0,1,2-1.93,2.15,2.15,0,0,1,1.79,1.13l2.41,5.9h0A3.34,3.34,0,0,0,50.13,42.61Z"/><path class="cls-1" d="M52.9,53.85a7.36,7.36,0,0,0-7.42,7.31s.5-13.08.5-14.31a4.32,4.32,0,0,1,4.36-4.29,4.75,4.75,0,0,1,4,2.51l5.36,13.1h0A7.44,7.44,0,0,0,52.9,53.85Z"/><polyline class="cls-1" points="45.91 48.38 45.75 53.25 38.26 53.25 38.09 48.38"/><path class="cls-1" d="M52.9,53.85a7.31,7.31,0,1,0,7.42,7.31A7.36,7.36,0,0,0,52.9,53.85Zm0,11.85a4.55,4.55,0,1,1,4.61-4.54A4.58,4.58,0,0,1,52.9,65.7Z"/><path class="cls-1" d="M187.91,162v35.84l-27.85,17.07H109.94L82.09,197.81V162L57.68,178.42a7.81,7.81,0,0,0-3.43,6.46v72.33A7.78,7.78,0,0,0,62,265H208a7.78,7.78,0,0,0,7.78-7.79V184.88a7.81,7.81,0,0,0-3.43-6.46Z"/><path class="cls-1" d="M89.88,103.5a7.78,7.78,0,0,0-7.79,7.78v86.53l27.85,17.07h50.12l27.85-17.07V111.28a7.78,7.78,0,0,0-7.79-7.78Z"/><polyline class="cls-1" points="73.74 245.51 109.94 214.88 160.06 214.88 196.26 245.51"/><line class="cls-1" x1="160.06" y1="214.88" x2="214.87" y2="181.28"/><line class="cls-1" x1="55.54" y1="181.53" x2="109.94" y2="214.88"/><line class="cls-1" x1="104.37" y1="124.26" x2="118.29" y2="124.26"/><line class="cls-1" x1="104.37" y1="140.96" x2="165.63" y2="140.96"/><line class="cls-1" x1="104.37" y1="163.24" x2="152.32" y2="163.24"/><line class="cls-1" x1="104.37" y1="185.52" x2="135" y2="185.52"/><polygon class="cls-1" points="133.13 41.62 153.06 41.62 153.06 22.94 145.58 15.47 133.13 15.47 133.13 41.62"/><polyline class="cls-4" points="145.58 15.47 145.58 22.94 153.06 22.94"/><rect class="cls-1" x="116.94" y="40.37" width="6.28" height="11.21"/><path class="cls-1" d="M123.22,50.33h26.7c0-2.68-5.5-5-11.78-5h-11"/><path class="cls-1" d="M123.22,41.62h4.34a8.92,8.92,0,0,1,3.28.56A11.22,11.22,0,0,1,135,45.3"/><line class="cls-1" x1="137.14" y1="28.05" x2="149.04" y2="28.05"/><line class="cls-1" x1="137.14" y1="32.36" x2="146.46" y2="32.36"/><line class="cls-1" x1="137.14" y1="36.68" x2="143.09" y2="36.68"/></svg>