<svg id="Layer_1" data-name="Layer 1" xmlns="http://www.w3.org/2000/svg" viewBox="0 0 270 270"><defs><style>.cls-1{fill:#fff;}.cls-1,.cls-2{stroke:#0b1320;stroke-linecap:round;stroke-linejoin:round;}.cls-2{fill:none;stroke-dasharray:2.39 3.98;}</style></defs><path className="cls-1" d="M17.67,168.34V143a4.64,4.64,0,0,1,4.64-4.64H235.76V78.87H5v134a4.64,4.64,0,0,0,4.64,4.64H231.11a4.65,4.65,0,0,0,4.65-4.64V173H22.31A4.65,4.65,0,0,1,17.67,168.34Z"/><polyline className="cls-1" points="5 148.22 5 113.55 235.76 113.55 235.76 138.31"/><path className="cls-1" d="M30.57,104.42a8.21,8.21,0,1,1,8.06-8.21A8.14,8.14,0,0,1,30.57,104.42Z"/><ellipse className="cls-1" cx="30.57" cy="94.57" rx="3.22" ry="3.28"/><path className="cls-1" d="M30.57,104.42a8,8,0,0,0,5.69-2.4,6,6,0,0,0-11.39,0A8,8,0,0,0,30.57,104.42Z"/><line className="cls-1" x1="42.39" y1="93.79" x2="57.65" y2="93.79"/><line className="cls-1" x1="42.39" y1="98.63" x2="53.07" y2="98.63"/><line className="cls-1" x1="87.33" y1="96.21" x2="112.83" y2="96.21"/><line className="cls-1" x1="126.82" y1="96.21" x2="160.46" y2="96.21"/><line className="cls-1" x1="171.18" y1="96.21" x2="210.81" y2="96.21"/><path className="cls-1" d="M26.4,137.91a8.16,8.16,0,1,1,12.23-7,8.23,8.23,0,0,1-4,7.1"/><ellipse className="cls-1" cx="30.57" cy="129.25" rx="3.22" ry="3.28"/><path className="cls-1" d="M34.17,138.23a8.13,8.13,0,0,0,2.09-1.54,6,6,0,0,0-11.39,0,7.91,7.91,0,0,0,2.27,1.62"/><line className="cls-1" x1="42.39" y1="128.47" x2="57.65" y2="128.47"/><line className="cls-1" x1="42.39" y1="133.31" x2="53.07" y2="133.31"/><line className="cls-1" x1="87.33" y1="130.89" x2="112.83" y2="130.89"/><line className="cls-1" x1="126.82" y1="130.89" x2="160.46" y2="130.89"/><line className="cls-1" x1="171.18" y1="130.89" x2="210.81" y2="130.89"/><path className="cls-1" d="M30.57,208.44a8.21,8.21,0,1,1,8.06-8.2A8.13,8.13,0,0,1,30.57,208.44Z"/><ellipse className="cls-1" cx="30.57" cy="198.6" rx="3.22" ry="3.28"/><path className="cls-1" d="M30.57,208.44a7.93,7.93,0,0,0,5.69-2.4,6,6,0,0,0-11.39,0A7.94,7.94,0,0,0,30.57,208.44Z"/><line className="cls-1" x1="42.39" y1="197.82" x2="57.65" y2="197.82"/><line className="cls-1" x1="42.39" y1="202.66" x2="53.07" y2="202.66"/><line className="cls-1" x1="87.33" y1="200.24" x2="112.83" y2="200.24"/><line className="cls-1" x1="126.82" y1="200.24" x2="160.46" y2="200.24"/><line className="cls-1" x1="171.18" y1="200.24" x2="210.81" y2="200.24"/><path className="cls-2" d="M17.67,148.23H5V182.9H235.76V173H22.31a4.65,4.65,0,0,1-4.64-4.65V148.23"/><path className="cls-1" d="M235.76,56.53a4.09,4.09,0,0,0-4.09-4.08H9.08A4.08,4.08,0,0,0,5,56.53V78.87H235.76ZM21.13,69.44a3.78,3.78,0,1,1,3.78-3.78A3.78,3.78,0,0,1,21.13,69.44Zm14.05,0A3.78,3.78,0,1,1,39,65.66,3.78,3.78,0,0,1,35.18,69.44Zm14,0A3.78,3.78,0,1,1,53,65.66,3.78,3.78,0,0,1,49.23,69.44Z"/><path className="cls-1" d="M21.13,61.88a3.78,3.78,0,1,0,3.78,3.78A3.79,3.79,0,0,0,21.13,61.88Z"/><path className="cls-1" d="M35.18,61.88A3.78,3.78,0,1,0,39,65.66,3.79,3.79,0,0,0,35.18,61.88Z"/><path className="cls-1" d="M49.23,61.88A3.78,3.78,0,1,0,53,65.66,3.78,3.78,0,0,0,49.23,61.88Z"/><path className="cls-1" d="M243.79,138.31H22.31A4.64,4.64,0,0,0,17.67,143v25.39A4.65,4.65,0,0,0,22.31,173H243.79a4.65,4.65,0,0,0,4.64-4.65V143A4.64,4.64,0,0,0,243.79,138.31Z"/><path className="cls-1" d="M43.24,163.85a8.21,8.21,0,1,1,8.06-8.2A8.13,8.13,0,0,1,43.24,163.85Z"/><ellipse className="cls-1" cx="43.24" cy="154.01" rx="3.22" ry="3.28"/><path className="cls-1" d="M43.24,163.85a8,8,0,0,0,5.69-2.39,6,6,0,0,0-11.38,0A8,8,0,0,0,43.24,163.85Z"/><line className="cls-1" x1="55.06" y1="153.23" x2="70.32" y2="153.23"/><line className="cls-1" x1="55.06" y1="158.07" x2="65.74" y2="158.07"/><line className="cls-1" x1="100" y1="155.65" x2="125.51" y2="155.65"/><line className="cls-1" x1="139.49" y1="155.65" x2="173.13" y2="155.65"/><line className="cls-1" x1="183.85" y1="155.65" x2="223.48" y2="155.65"/><polygon className="cls-1" points="243.81 186.13 239.53 153.19 265 172.8 252 174.49 243.81 186.13"/></svg>