<svg id="Layer_1" data-name="Layer 1" xmlns="http://www.w3.org/2000/svg" viewBox="0 0 36 36"><defs><style>.cls-1{fill:#fff;stroke:#0b1320;stroke-linecap:round;stroke-linejoin:round;}.cls-2{fill:#0b1320;}</style></defs><path class="cls-1" d="M35,28.05a3,3,0,0,1-3,3H4a3,3,0,0,1-3-3V10.82H35Z"/><path class="cls-1" d="M4,5H32a3,3,0,0,1,3,3v2.86a0,0,0,0,1,0,0H1a0,0,0,0,1,0,0V8A3,3,0,0,1,4,5Z"/><polygon class="cls-1" points="24.92 14.98 17.7 14.98 17.7 19.93 30.77 19.93 30.77 14.98 24.92 14.98"/><line class="cls-1" x1="17.71" y1="23.5" x2="30.78" y2="23.5"/><line class="cls-1" x1="17.71" y1="27.01" x2="24.24" y2="27.01"/><path class="cls-2" d="M6,8.06a.74.74,0,0,1-.74.74h0a.74.74,0,0,1-.74-.74h0a.74.74,0,0,1,.74-.74h0A.74.74,0,0,1,6,8.06Z"/><path class="cls-2" d="M8.91,8.06a.74.74,0,0,1-.74.74h0a.74.74,0,0,1-.74-.74h0a.74.74,0,0,1,.74-.74h0a.74.74,0,0,1,.74.74Z"/><path class="cls-2" d="M11.87,8.06a.74.74,0,0,1-.74.74h0a.74.74,0,0,1-.74-.74h0a.74.74,0,0,1,.74-.74h0a.74.74,0,0,1,.74.74Z"/><path class="cls-2" d="M22,17.45a.74.74,0,0,1-.74.74h0a.74.74,0,0,1-.74-.74h0a.74.74,0,0,1,.74-.73h0a.74.74,0,0,1,.74.73Z"/><path class="cls-2" d="M25,17.45a.74.74,0,0,1-.74.74h0a.74.74,0,0,1-.74-.74h0a.74.74,0,0,1,.74-.73h0a.74.74,0,0,1,.74.73Z"/><path class="cls-2" d="M27.94,17.45a.74.74,0,0,1-.74.74h0a.74.74,0,0,1-.74-.74h0a.74.74,0,0,1,.74-.73h0a.74.74,0,0,1,.74.73Z"/><path class="cls-1" d="M8.91,26a5,5,0,0,1,0-10,5,5,0,0,1,0,10Z"/><ellipse class="cls-1" cx="8.91" cy="19.93" rx="1.97" ry="2.01"/><path class="cls-1" d="M8.91,26a4.85,4.85,0,0,0,3.48-1.47,3.65,3.65,0,0,0-7,0A4.85,4.85,0,0,0,8.91,26Z"/></svg>