<svg xmlns="http://www.w3.org/2000/svg" viewBox="0 0 68.31 22.83"><g data-name="Layer 2"><g data-name="Layer 1"><path d="M62.87 0h-58a4.52 4.52 0 00-.57 0 7.44 7.44 0 00-1.15.1 4 4 0 00-1.08.39 3.62 3.62 0 00-.92.67 3.74 3.74 0 00-.67.92 4.29 4.29 0 00-.36 1.08A9 9 0 000 4.31v14.21a6.29 6.29 0 00.11 1.14 4.11 4.11 0 00.36 1.09 3.56 3.56 0 00.67.92 3.9 3.9 0 002 1 8.63 8.63 0 001.15.1H64a7.44 7.44 0 001.15-.1 3.9 3.9 0 001.09-.37 3.43 3.43 0 00.92-.66 4.43 4.43 0 00.69-.92 3.54 3.54 0 00.34-1.09 7.22 7.22 0 00.11-1.14V4.31a7.58 7.58 0 00-.11-1.15 4.11 4.11 0 00-.34-1.08 3.71 3.71 0 00-1.6-1.6 4 4 0 00-1.09-.36A8.78 8.78 0 0064 0h-1.13z" fill="#a2b3d1"/><path d="M4.82 22.35H4.3a7.72 7.72 0 01-1.07-.09 3.53 3.53 0 01-1-.31 3.76 3.76 0 01-.8-.57 3.31 3.31 0 01-.59-.8 3.51 3.51 0 01-.3-.95 6.46 6.46 0 01-.1-1.07V4.33a6.36 6.36 0 01.1-1.07 3.3 3.3 0 01.3-.95 3.48 3.48 0 01.58-.8 3.52 3.52 0 01.8-.59 3.31 3.31 0 011-.31A7.72 7.72 0 014.29.52H64a7.32 7.32 0 011 .09 3.42 3.42 0 011 .31 3.2 3.2 0 011.37 1.38 3.06 3.06 0 01.31.94 8.14 8.14 0 01.09 1.09v14.23a7.19 7.19 0 01-.09 1.05 3 3 0 01-.31.95 2.8 2.8 0 01-.57.79 3.31 3.31 0 01-.8.59 4.43 4.43 0 01-1 .32 7.6 7.6 0 01-1.07.09z" fill="#010101"/><path d="M14.14 11.6a2.8 2.8 0 011.35-2.37A2.84 2.84 0 0013.21 8c-1-.11-1.89.57-2.38.57S9.57 8 8.77 8a3 3 0 00-2.55 1.59c-1.11 1.91-.28 4.72.78 6.26.53.76 1.14 1.6 2 1.57s1.08-.5 2-.5 1.23.5 2.06.48 1.39-.76 1.89-1.52a6.48 6.48 0 00.87-1.77 2.7 2.7 0 01-1.68-2.51zM12.58 7a2.83 2.83 0 00.64-2 2.87 2.87 0 00-1.83 1 2.62 2.62 0 00-.65 1.92A2.33 2.33 0 0012.58 7zm11.57 8.5h-2.69l-.66 1.92h-1.15l2.57-7.09h1.19L26 17.42h-1.19zm-2.43-.88h2.14l-1.05-3.11zm9.78.21c0 1.61-.86 2.65-2.17 2.65a1.74 1.74 0 01-1.62-.91v2.56h-1.09v-6.87h1v.85a1.81 1.81 0 011.64-.91c1.32 0 2.19 1 2.19 2.63zm-1.1 0c0-1-.54-1.73-1.36-1.73s-1.36.71-1.36 1.73.55 1.74 1.36 1.74 1.36-.68 1.36-1.74zm6.79 0c0 1.61-.86 2.65-2.17 2.65a1.75 1.75 0 01-1.63-.91v2.56h-1.08v-6.87h1v.85A1.84 1.84 0 0135 12.2c1.32 0 2.19 1.03 2.19 2.63zm-1.1 0c0-1-.55-1.73-1.36-1.73s-1.36.71-1.36 1.73.54 1.74 1.36 1.74 1.36-.68 1.36-1.74zm4.85.62c.08.71.76 1.16 1.69 1.16s1.54-.47 1.54-1.09-.39-.89-1.31-1.11l-.92-.23c-1.31-.32-1.91-.92-1.91-1.91C40 11 41.1 10.2 42.61 10.2a2.28 2.28 0 012.56 2.07H44.1c-.06-.71-.65-1.13-1.51-1.13s-1.44.42-1.44 1 .37.8 1.28 1l.79.19c1.46.34 2.06.93 2.06 2 0 1.32-1.06 2.16-2.74 2.16s-2.63-.81-2.7-2.1h1.1zM47.59 11v1.23h1v.84h-1v2.84c0 .44.2.66.62.66h.35v.84a2.94 2.94 0 01-.59.05c-1 0-1.45-.38-1.45-1.4v-3h-.75v-.84h.75V11zm1.55 3.8a2.46 2.46 0 114.91 0 2.46 2.46 0 11-4.91 0zm3.81 0c0-1.12-.5-1.77-1.37-1.77s-1.38.67-1.38 1.77.51 1.78 1.38 1.78S53 16 53 14.83zm2-2.57h1v.88a1.25 1.25 0 011.24-.94 2.2 2.2 0 01.36 0v1a1.58 1.58 0 00-.48-.06 1.07 1.07 0 00-1.11 1v3.23h-1zm7.53 3.64a2.09 2.09 0 01-2.23 1.59 2.36 2.36 0 01-2.45-2.63 2.39 2.39 0 012.39-2.67 2.28 2.28 0 012.33 2.55v.36h-3.68v.07a1.34 1.34 0 001.23 1.45h.17a1.13 1.13 0 001.19-.72zm-3.59-1.53h2.59a1.24 1.24 0 00-1.18-1.31h-.09a1.3 1.3 0 00-1.32 1.31zM21.59 5a1.52 1.52 0 011.62 1.39 1 1 0 010 .3 1.51 1.51 0 01-1.6 1.71h-1.25V5zm-.69 2.92h.64a1.08 1.08 0 001.13-1 1.55 1.55 0 000-.22 1.09 1.09 0 00-.92-1.21.71.71 0 00-.2 0h-.65zm2.89-.8a1.22 1.22 0 011.1-1.33 1.21 1.21 0 011.32 1.1.88.88 0 010 .23 1.22 1.22 0 01-2.43.24 1.93 1.93 0 00.01-.24zm1.91 0c0-.56-.25-.88-.69-.88s-.7.32-.7.88.26.88.7.88.69-.32.69-.88zm3.74 1.28h-.52l-.53-1.9-.54 1.9h-.52l-.71-2.58h.52l.46 2 .53-2h.48l.54 2 .45-2h.51zm1.31-2.57h.49v.42a.77.77 0 01.76-.46.83.83 0 01.9.78v1.86h-.51V6.86c0-.41-.17-.61-.56-.61a.59.59 0 00-.61.56v1.6h-.51V5.83zm3-1h.51v3.58h-.51zM35 7.12a1.21 1.21 0 112.41-.23.45.45 0 010 .23 1.21 1.21 0 01-1.09 1.33 1.23 1.23 0 01-1.34-1.09 1 1 0 01.02-.24zm1.89 0c0-.56-.25-.88-.69-.88s-.7.32-.7.88.26.88.7.88.65-.32.65-.88zm1.06.56c0-.47.34-.74 1-.76h.69v-.27c0-.27-.17-.43-.52-.43s-.48.11-.53.28H38c.06-.44.47-.72 1.06-.72s1 .32 1 .87v1.76h-.49v-.36a.85.85 0 01-.78.4.78.78 0 01-.85-.69zm1.65-.23v-.21h-.63c-.36 0-.52.14-.52.37s.2.36.48.36a.61.61 0 00.67-.55zm1.18-.33c0-.82.41-1.33 1.07-1.33a.84.84 0 01.78.46V4.83h.51v3.58h-.48V8a.9.9 0 01-.8.46c-.67 0-1.08-.54-1.08-1.35zm.52 0c0 .54.25.86.68.86s.69-.33.69-.86-.26-.87-.69-.87-.72.32-.72.87zm4 0a1.21 1.21 0 112.41-.23.45.45 0 010 .23 1.21 1.21 0 01-1.09 1.33 1.23 1.23 0 01-1.34-1.09 1 1 0 01-.04-.24zm1.89 0c0-.56-.25-.88-.69-.88s-.7.32-.7.88.26.88.7.88.63-.32.63-.88zm1.2-1.29h.5v.42a.76.76 0 01.76-.46.82.82 0 01.89.78v1.86H50V6.86c0-.41-.18-.61-.56-.61a.61.61 0 00-.62.56v1.6h-.51zm5.06-.64v.66H54v.43h-.57V7.6c0 .26.11.38.37.38h.18v.42a2.4 2.4 0 01-.28 0c-.56 0-.79-.21-.79-.7V6.28h-.4v-.43h.42v-.66zm1.25-.36h.5v1.42a.77.77 0 01.8-.46.87.87 0 01.9.81v1.81h-.52V6.86c0-.41-.19-.61-.55-.61a.61.61 0 00-.66.55v1.6h-.5zm5.1 2.87a1 1 0 01-1.1.75 1.18 1.18 0 01-1.21-1.13.55.55 0 010-.19 1.19 1.19 0 011-1.34h.18c.72 0 1.14.5 1.14 1.3v.17H58a.67.67 0 00.61.73h.07a.61.61 0 00.61-.31zM58 6.88h1.29a.61.61 0 00-.57-.67.66.66 0 00-.67.67z" fill="#fff"/></g></g></svg>